<svg width="24" height="24" xmlns="http://www.w3.org/2000/svg"><path d="M5.248 21c-.334 0-.619-.116-.853-.35a1.153 1.153 0 0 1-.351-.848c0-.333.117-.616.351-.85.234-.233.519-.35.853-.35H7.24L4.558 9.87a2.881 2.881 0 0 1-1.126-1.042A2.77 2.77 0 0 1 3 7.317c0-.793.28-1.467.838-2.023a2.774 2.774 0 0 1 2.033-.834 2.71 2.71 0 0 1 1.728.585c.494.389.832.887 1.014 1.493h3.58V5.239c0-.22.076-.406.226-.555a.76.76 0 0 1 .558-.224c.136 0 .263.035.381.104.118.07.209.167.273.292v.14l1.835-1.702a.979.979 0 0 1 .52-.279.881.881 0 0 1 .58.091l4.01 1.85a.74.74 0 0 1 .36.364.537.537 0 0 1-.002.474.592.592 0 0 1-.366.323.657.657 0 0 1-.477-.039l-3.858-1.774L13.76 6.59v1.454l2.473 2.233 3.858-1.774a.648.648 0 0 1 .485-.03.571.571 0 0 1 .358.314.513.513 0 0 1 .01.482.79.79 0 0 1-.367.357l-4.011 1.882a.881.881 0 0 1-.58.09.979.979 0 0 1-.52-.278L13.63 9.638v.14a.92.92 0 0 1-.273.275.665.665 0 0 1-.381.12.76.76 0 0 1-.558-.224.752.752 0 0 1-.225-.555V8.096h-3.58a2.82 2.82 0 0 1-.215.54 2.552 2.552 0 0 1-.323.479l5.139 9.488h2.673c.335 0 .62.116.854.35.234.233.35.516.35.849 0 .332-.116.615-.35.849a1.167 1.167 0 0 1-.854.349H5.248Zm.623-12.385c.362 0 .67-.126.924-.378a1.25 1.25 0 0 0 .38-.92 1.25 1.25 0 0 0-.38-.92 1.261 1.261 0 0 0-.924-.379 1.26 1.26 0 0 0-.925.379 1.25 1.25 0 0 0-.38.92c0 .36.127.667.38.92.254.252.562.378.925.378Z"/></svg>