<svg width="10" height="19" viewBox="0 0 10 19" fill="none" xmlns="http://www.w3.org/2000/svg">
<path fill-rule="evenodd" clip-rule="evenodd" d="M9.52182 14.8114C9.87293 14.4603 9.87293 13.8911 9.52182 13.54C9.17071 13.1888 8.60144 13.1888 8.25033 13.54L6.18885 15.6014L6.18885 3.15999L8.25033 5.22147C8.60144 5.57258 9.17071 5.57258 9.52182 5.22147C9.87293 4.87036 9.87293 4.30109 9.52182 3.94998L5.9255 0.353666C5.57439 0.00255379 5.00513 0.00255378 4.65401 0.353666L1.0577 3.94998C0.706587 4.30109 0.706587 4.87036 1.0577 5.22147C1.40881 5.57258 1.97808 5.57258 2.32919 5.22147L4.3907 3.15996L4.3907 15.6015L2.32919 13.54C1.97808 13.1888 1.40881 13.1888 1.0577 13.54C0.706588 13.8911 0.706588 14.4603 1.0577 14.8114L4.65402 18.4078C5.00513 18.7589 5.57439 18.7589 5.92551 18.4078L9.52182 14.8114Z" fill="white"/>
</svg>
