<svg width="24" height="24" viewBox="0 0 24 24" xmlns="http://www.w3.org/2000/svg">
  <path fill-rule="evenodd" clip-rule="evenodd" d="M11.9991 0.999878L15.4045 4.40529L14.1795 5.6303L12.8653 4.31611V8.16493H11.1329V4.31611L9.88895 5.56007L8.66394 4.33506L11.9991 0.999878ZM11.1329 15.6649H12.8653V19.684L14.1795 18.3699L15.4045 19.5949L11.9991 23.0003L8.59371 19.5949L9.81872 18.3699L11.1329 19.684V15.6649ZM4.31583 11.1337H8.16412V12.8662H4.31583L5.63003 14.1803L4.40502 15.4054L0.999603 11.9999L4.40502 8.59452L5.63003 9.81953L4.31583 11.1337ZM19.6838 12.8662H15.6641V11.1337H19.6838L18.3696 9.81953L19.5946 8.59452L23 11.9999L19.5946 15.4054L18.3696 14.1803L19.6838 12.8662Z" fill="currentColor"/>
</svg>
