<svg xmlns="http://www.w3.org/2000/svg" width="15" height="17" fill="none"><path fill="currentColor" d="M12.9 7.667c-.133-.534-.533-1-1-1.134L10.367 6l-.4 1.267L11.5 7.8c.067 0 .133.067.133.2l1.067 4.867a.32.32 0 0 1-.133.4l-2.267 1.8c-.267.2-.333.666-.133.933s.666.333.933.133l2.267-1.8c.533-.4.733-1.133.6-1.733zM12.5 0H1.833A1.65 1.65 0 0 0 .167 1.667v1.4c0 .866.733 1.6 1.666 1.6h10.734c.866 0 1.6-.734 1.6-1.667V1.667A1.65 1.65 0 0 0 12.5 0M1.633 12.8 2.7 8c0-.067.067-.133.133-.2l1.534-.533-.4-1.2-1.534.466c-.533.2-.933.6-1 1.134L.367 12.533c-.134.667.066 1.334.6 1.734l2.266 1.8c.267.266.734.2.934-.067s.2-.733-.134-.933l-2.266-1.8c-.134-.134-.2-.267-.134-.467"/></svg>