<svg xmlns="http://www.w3.org/2000/svg" width="21" height="21" fill="none" viewBox="0 0 23 22"><path fill="currentColor" d="m21.71 16.262-1.09.346.66 2.071-2.923-1.461V9.857l-6.285-3.143V2.893L13.38 4.21l.812-.806-2.674-2.69-2.706 2.687.805.812L10.93 2.91v3.803L4.643 9.857v7.36l-2.914 1.458.657-2.067-1.09-.346-1.225 3.88 3.826 1.144.346-1.09-1.836-.583 2.874-1.436 6.22 3.109 6.217-3.11 2.877 1.439-1.831.581.345 1.09 3.82-1.143zM11.5 12.646l-4.94-2.47 4.94-2.47 4.94 2.47zm.572.993 5.143-2.572v6.083l-5.143 2.572zm-6.286-2.572 5.143 2.572v6.083L5.786 17.15z"/></svg>