<svg width="18" height="18" viewBox="0 0 18 18" fill="none" xmlns="http://www.w3.org/2000/svg">
<path fill-rule="evenodd" clip-rule="evenodd" d="M6.3587 14.2499V15.4937V17.1848H8.04982H12.298H13.9891V15.4937V13.663L10.1958 9.86972L9 8.67391L9.85854 7.81537L10.1958 7.47811L11.0543 6.61956L11.6194 7.18463L12.2502 7.81537L12.8152 8.38043L14.011 7.18463L14.5542 6.64146L15.75 5.44565L14.5542 4.24984L12.2502 1.94581L11.0543 0.75L9.85854 1.94581L3.44581 8.35854L2.25 9.55435L3.44581 10.7502L6.35862 13.663V14.2499H6.3587ZM8.04982 14.2499V15.4937H12.298V14.3635L7.80419 9.86972L6.60839 8.67391L7.80419 7.47811L9.85854 5.42376L9.86612 5.41618L9.32295 4.87301L4.64161 9.55435L7.5545 12.4672L8.04982 12.9626V13.076H10.1738L11.3478 14.2499H8.04982ZM11.0543 4.22795L10.7599 4.52241L10.2167 3.97924L11.0543 3.14161L13.3584 5.44565L12.8152 5.98882L12.2502 5.42376L11.0543 4.22795Z" fill="#38C6F4"/>
</svg>