<svg xmlns="http://www.w3.org/2000/svg" width="18" height="18" fill="none"><path fill="#38C6F4" fill-rule="evenodd" d="M6.359 14.25v2.934h7.63v-3.521L10.196 9.87 9 8.674l.859-.859.337-.337.858-.858.565.565.631.63.565.565 1.196-1.195.543-.544 1.196-1.195-1.196-1.196-2.304-2.304L11.054.75 9.86 1.946 3.446 8.359 2.25 9.554l1.196 1.196 2.913 2.913zm1.69 0v1.244h4.249v-1.13L7.804 9.87 6.608 8.674l1.196-1.196L9.86 5.424l.007-.008-.543-.543-4.681 4.681 2.912 2.913.496.496v.113h2.124l1.174 1.174zm3.005-10.022-.294.294-.543-.543.837-.837 2.304 2.304-.543.543-.565-.565z" clip-rule="evenodd"/></svg>