<svg width="24" height="24" xmlns="http://www.w3.org/2000/svg"><path fill-rule="evenodd" clip-rule="evenodd" d="M15.306 2.768c0-.424.344-.768.768-.768h.406C19.53 2 22 4.551 22 7.699c0 3.237-2.51 5.587-5.31 5.703-.84 1.595-2.478 2.677-4.36 2.677a4.845 4.845 0 0 1-3.146-1.163c-.6 1.783 0 3.922 1.79 4.99 1.929 1.149 4.395.467 5.508-1.524l.212-.378a.75.75 0 1 1 1.308.732l-.231.414c-1.524 2.725-4.9 3.66-7.54 2.085-2.716-1.618-3.432-5.037-2.129-7.599a5.22 5.22 0 0 1-.73-2.677c0-2.192 1.335-4.063 3.212-4.793-1.195-1.427-3.29-1.96-5.08-.892-1.928 1.15-2.589 3.696-1.475 5.687l.231.413a.75.75 0 0 1-1.308.732l-.212-.377c-1.524-2.726-.62-6.211 2.02-7.785 2.716-1.619 5.943-.55 7.44 1.897l.13-.001c2.739 0 4.96 2.292 4.96 5.12 0 .284-.023.563-.066.834 1.795-.354 3.288-1.96 3.288-4.095 0-2.3-1.805-4.163-4.032-4.163h-.406a.768.768 0 0 1-.768-.768Zm.496 8.191c0 .286-.033.564-.094.831a3.62 3.62 0 0 1-.672 1.415 3.425 3.425 0 0 1-2.706 1.338 3.402 3.402 0 0 1-2.384-.98 3.598 3.598 0 0 1-.852-1.306 3.677 3.677 0 0 1-.235-1.298c0-1.623 1.046-2.994 2.48-3.435a3.37 3.37 0 0 1 1.522-.107c1.665.264 2.94 1.75 2.94 3.542Z" /></svg>