<svg width="24" height="24" fill="none" xmlns="http://www.w3.org/2000/svg"><path d="M12.953 5.09a1.497 1.497 0 0 0-1.653-.518l-1.35.43a1.504 1.504 0 0 0-1.726-.376L2.858 6.97c-.736.321-1.06 1.155-.726 1.862.334.707 1.202 1.02 1.937.698l4.27-1.865 1.466 1.973v.402c0 .873-.627 1.63-1.512 1.827l-2.56.567c-1.329.295-2.27 1.431-2.27 2.74v.107c0 .26.22.469.489.469h11.117c1.329 0 2.618.435 3.656 1.233l1.665 1.28A1 1 0 0 0 22 17.47V11.062c0-.312-.108-.616-.308-.863l-3.415-4.218a1.5 1.5 0 0 0-1.618-.471l-.378.12-.866-.475a1.516 1.516 0 0 0-1.188-.114l-1.06.338-.214-.289Z"/></svg>