<svg width="24" height="24" fill="none" xmlns="http://www.w3.org/2000/svg"><path d="M9.057 15.115c-1.681 0-3.111-.59-4.29-1.768C3.59 12.17 3 10.74 3 9.057c0-.29.021-.582.064-.876a4.1 4.1 0 0 1 .214-.844.78.78 0 0 1 .273-.36c.115-.077.244-.133.389-.168a.857.857 0 0 1 .437.008c.146.04.28.12.4.24l2.806 2.787 2.26-2.261-2.775-2.786a.903.903 0 0 1-.241-.405.875.875 0 0 1-.008-.442 1.13 1.13 0 0 1 .174-.389.82.82 0 0 1 .355-.273c.268-.107.548-.182.838-.224.29-.043.581-.064.871-.064 1.682 0 3.112.59 4.29 1.768 1.179 1.178 1.768 2.608 1.768 4.29 0 .444-.042.858-.126 1.241-.084.384-.21.755-.377 1.113l5.726 5.692A2.2 2.2 0 0 1 21 18.721a2.2 2.2 0 0 1-.662 1.617A2.2 2.2 0 0 1 18.72 21a2.173 2.173 0 0 1-1.617-.679l-5.692-5.709c-.372.161-.75.285-1.133.372-.383.087-.79.13-1.222.13Z" fill="#fff" fill-opacity=".56"/></svg>